<?xml version="1.0" encoding="utf-8" ?><svg xmlns="http://www.w3.org/2000/svg" xmlns:xlink="http://www.w3.org/1999/xlink" width="1908" height="614" viewBox="0 0 1908 614"><path fill="#B7B6B6" d="M281.105 267.314L365.05 267.36C419.636 267.387 462.863 263.727 437.215 336.987C428.259 362.569 410.81 378.449 383.661 383.466C399.053 407.146 415.728 430.242 430.869 454.007L1421.02 456.235C1564.42 456.678 1709.46 455.077 1852.69 456.793C1848.62 471.728 1840.84 499.48 1838.43 513.957L1826.68 513.589L390.027 510.803C365.335 476.881 338.276 433.82 314.771 398.365C310.711 412.821 307.144 427.733 303.085 442.361C281.409 441.535 256.946 442.046 235.067 442.022C250.813 385.807 266.737 324.038 281.105 267.314ZM328.784 343.01C339.501 343.133 348.18 344.147 358.18 340.451C361.815 338.064 364.649 336.303 366.575 332.18C379.589 304.317 357.163 306.983 338.166 307.512C335.261 319.193 331.462 331.559 328.784 343.01Z"/><path fill="#225A93" d="M1251.8 16.2619C1249.31 17.9781 1238.14 24.9408 1235.41 25.6407C1226.49 32.6744 1207.58 43.2213 1197.29 49.3624L1139.75 84.3173L954.296 197.414L894.698 233.767C885.541 239.347 872.639 246.693 864.042 252.547L762.684 252.419C710.343 253.731 651.795 252.405 598.967 252.394L999.629 107.263L1140.88 56.1538C1168.15 46.2503 1199.44 34.1496 1226.88 25.4597C1233.95 22.0627 1244.14 19.1595 1251.8 16.2619Z"/><path fill="#153E67" d="M1227.61 27.9521C1230.22 26.7264 1232.63 26.2824 1235.41 25.6407C1226.49 32.6744 1207.58 43.2213 1197.29 49.3624L1139.75 84.3173L954.296 197.414L894.698 233.767C885.541 239.347 872.639 246.693 864.042 252.547L762.684 252.419C774.184 245.522 796.42 235.619 808.841 229.651C836.561 216.158 864.355 202.815 892.219 189.623L1084.29 96.8562C1117.93 81.0128 1151.45 64.9276 1184.85 48.6017C1199.12 41.6729 1213.61 35.4158 1227.61 27.9521Z"/><path fill="#225A93" d="M1189.74 266.071C1190.82 265.947 1191.91 265.847 1192.99 265.772C1221.26 263.923 1298.33 259.628 1295.79 301.666C1293.92 332.747 1282.43 370.552 1272.91 400.664C1262.18 434.633 1226.54 445.168 1195.06 446.646C1163.63 448.497 1091.79 454.153 1089.08 410.343C1088.77 405.172 1089.1 399.982 1090.05 394.89C1092.29 382.493 1097.28 369.499 1100 357.3C1112.95 299.259 1123.42 269.928 1189.74 266.071ZM1185.35 404.666C1213.93 397.087 1211.8 370.08 1220.2 345.475C1227.08 325.316 1230.29 306.288 1201.57 307.634C1169.87 313.643 1174.25 341.499 1165.33 367.013C1158.13 387.602 1155.75 408.012 1185.35 404.666Z"/><path fill="#225A93" d="M923.023 268.259L988.608 268.465C997.768 298.494 1006.41 333.895 1014.6 364.501C1017.4 356.449 1020.6 342.27 1022.86 333.562L1039.79 268.466C1061.73 268.616 1083.68 268.604 1105.62 268.428C1102.63 283.961 1096.56 305.25 1092.56 321.18C1082.6 361.084 1072.14 400.858 1061.17 440.493L1060.06 442.679C1055.32 444.448 1002.23 443.403 993.395 443.361C985.872 413.187 975.983 382.331 967.925 352.094C962.403 377.84 951.094 417.855 943.989 443.425L876.99 443.263L923.023 268.259Z"/><path fill="#225A93" d="M1324.04 269.289L1405.95 269.28C1464.03 269.477 1503.55 265.983 1477.48 340.654C1468.41 366.617 1449.71 378.71 1424.45 386.221C1436.54 405.744 1448.86 425.116 1461.42 444.334L1434.03 444.416L1385.45 444.44C1376.35 430.431 1366.6 413.07 1357.75 398.582C1353.5 413.837 1349.38 429.123 1345.37 444.442C1325 443.606 1299.52 444.153 1278.91 444.088C1294.43 385.947 1309.48 327.679 1324.04 269.289ZM1371.31 345.539C1382.47 345.549 1390.24 346.458 1400.65 342.611C1403.74 340.398 1406.59 338.299 1408.23 334.786C1421.83 305.673 1399.29 309.161 1380.37 309.538C1377.42 321.557 1374.41 333.557 1371.31 345.539Z"/><path fill="#B7B6B6" d="M475.393 267.591L544.148 267.896C536.568 306.558 521.334 345.782 514.521 384.669C510.715 406.388 540.391 407.336 552.94 399.412C568.169 389.795 573.063 358.308 577.514 341.184L596.555 267.968C619.64 268.303 642.74 267.749 665.932 268.172C663.021 280.733 659.24 294.364 655.989 306.934C649.909 330.7 643.814 354.382 637.513 378.284C631.408 401.443 624.617 421.364 601.496 434.004C569.298 451.605 505.344 448.872 469.451 441.674C460.068 439.793 448.395 432.406 444.001 423.952C440.442 417.106 439.595 410.704 440.653 403.021C442.798 387.462 447.869 370.681 451.857 355.427C459.433 326.077 467.278 296.797 475.393 267.591Z"/><path fill="#225A93" d="M1718.64 270.164L1784.67 270.23C1779.6 291.741 1772.92 314.132 1768.47 335.563C1784.47 335.171 1801.92 335.52 1818.04 335.52C1822.86 313.826 1829.48 292.182 1834.29 270.191C1856.33 270.186 1878.38 270.399 1900.42 270.831C1898.08 283.298 1892.77 301.95 1889.46 314.75L1868.56 394.93C1866.35 403.435 1858.17 439.589 1855.2 444.985L1852.33 445.3L1789.53 445.176C1794.8 421.665 1800.69 399.644 1806.87 376.344C1790.22 376.397 1773.57 376.365 1756.92 376.249C1751.44 399.202 1744.99 421.904 1739.72 444.92L1673.13 444.568C1687.03 387.179 1703.95 327.822 1718.64 270.164Z"/><path fill="#B7B6B6" d="M1216.04 84.2386C1212.13 81.6114 1207.13 80.1648 1202.3 76.835L1203.37 75.8659C1231.96 84.8551 1262.23 95.936 1290.75 105.76L1465.03 166.42C1465.18 155.689 1465.26 144.958 1465.25 134.227L1525.84 134.259C1525.35 152.668 1525.15 171.084 1525.24 189.5C1585.44 210.146 1645.3 231.784 1704.79 254.405C1673.39 254.332 1637.6 255.21 1606.63 254.186C1594.64 254.751 1579.3 254.314 1566.99 254.329L1491.95 254.25L1209.27 83.3808L1216.04 84.2386Z"/><path fill="#818080" d="M1209.27 83.3808L1216.04 84.2386C1299.41 122.26 1382.5 160.871 1465.32 200.069L1547.32 238.119C1556.59 242.443 1568.34 249.317 1577.59 252.753C1583.68 255.015 1598.34 252.832 1606.63 254.186C1594.64 254.751 1579.3 254.314 1566.99 254.329L1491.95 254.25L1209.27 83.3808Z"/><path fill="#B7B6B6" d="M683.13 268.282L833.751 268.389L823.924 308.982C801.454 307.696 764.29 308.342 741.395 308.811C738.765 317.593 736.335 327.698 733.964 336.645C753.728 335.693 782.747 336.534 802.822 336.7C800.684 348.104 796.07 364.797 793.216 376.452L723.68 376.43L721.371 386.413C720.136 391.795 718.396 397.434 716.855 402.765C741.642 402.041 771.555 402.403 796.454 402.938C793.326 416.312 790.276 430.173 786.755 443.414C737.489 442.54 686.947 442.919 637.54 442.735L683.13 268.282Z"/><path fill="#225A93" d="M46.4567 454.222L325.335 454.658L363.558 512.31L337.889 511.992C232.546 509.98 124.635 512.147 19.0135 511.321C23.9855 492.255 29.2951 473.343 34.1018 454.22L46.4567 454.222Z"/><path fill="#B7B6B6" d="M73.8884 266.754C137.288 267.245 200.689 267.378 264.09 267.153C260.373 280.82 256.89 294.548 253.642 308.334C233.578 307.734 213.502 307.611 193.432 307.964C185.798 333.198 177.666 367.448 171.465 393.408C167.071 408.385 161.783 427.27 158.629 442.371C146.605 440.688 103.06 441.616 88.9395 441.614C91.6777 433.999 94.1253 423.442 96.1135 415.511C105.133 379.531 115.9 343.625 124.607 307.599L62.9607 307.438C66.4158 293.827 70.0587 280.264 73.8884 266.754Z"/><path fill="#225A93" d="M1513.69 269.87C1574.52 268.703 1639.64 270.235 1700.96 270.153C1698.82 281.777 1693.95 299.212 1690.98 311.094C1671.78 310.611 1651.34 311.361 1631.73 311.084C1630.29 320.025 1626.41 333.688 1624.07 342.856L1610.06 397.54C1606 412.535 1601.38 429.542 1598.18 444.629C1575.09 444.426 1552 444.368 1528.91 444.455L1564.17 310.36C1546.56 311.719 1521.86 310.591 1503.58 310.385C1506.98 296.861 1510.66 283.496 1513.69 269.87Z"/><path fill="#FEFDFE" d="M29.0344 559.03L798.122 560.499L798.439 571.06C729.363 569.556 657.509 570.332 588.271 570.233L247.351 569.402L102.061 569.198C84.5674 569.191 44.704 570.268 29.7655 568.709C28.5464 566.356 28.9816 561.864 29.0344 559.03Z"/><path fill="#FEFDFE" d="M1748.66 547.132C1770.54 545.119 1780.19 558.842 1774.36 580.531C1772.49 587.472 1766.75 591.24 1760.39 594.078C1727.96 597.245 1725.12 558.327 1748.66 547.132ZM1757.84 589.09C1775.76 582.207 1773.07 551.055 1752.69 551.734C1748.31 552.92 1744.83 554.562 1742.91 558.844C1736.49 573.176 1739.87 589.133 1757.84 589.09Z"/><path fill="#FEFDFE" d="M941.71 545.319C952.776 544.408 962.582 546.115 966.812 557.522C972.429 572.669 967.445 586.353 952.827 592.432C931.628 593.736 922.659 581.083 927.756 559.73C929.465 552.571 935.305 548.437 941.71 545.319ZM950.897 587.129C968.458 579.865 965.275 549.978 946.079 549.868C941.247 551.017 939.212 551.858 936.202 556.397C929.832 566.005 932.281 587.005 946.59 587.118C947.982 587.129 949.461 587.132 950.897 587.129Z"/><path fill="#FEFDFE" d="M1330.52 546.162C1334.99 545.799 1339.83 545.274 1344.18 546.902C1361.13 553.259 1362.42 579.051 1349.16 589.682C1347.25 591.213 1344.57 592.271 1342.31 593.257C1309.77 595.76 1307.18 557.408 1330.52 546.162ZM1339.4 588.266C1358.39 581.274 1354.32 549.872 1334.38 550.741C1317.34 555.76 1315.92 588.179 1339.4 588.266Z"/><path fill="#FEFDFE" d="M884.988 545.254C889.583 544.853 894.452 544.295 898.839 545.981C903.956 548 908.063 551.968 910.257 557.012C916.525 571.202 911.006 585.953 896.774 592.292C864.272 595.033 861.695 556.964 884.988 545.254ZM894.504 587.04C912.028 579.971 909.936 549.003 887.719 549.904C871.725 557.43 871.435 588.265 894.504 587.04Z"/><path fill="#FEFDFE" d="M1199.9 544.339C1221.5 543.036 1221.37 557.348 1204.5 567.724C1208.1 571.993 1212.73 576.367 1216.75 580.334C1218.73 575.225 1218.94 570.145 1223.65 567.282L1224.88 567.91C1226.2 574.436 1223.87 577.921 1221.2 584.013L1229.22 588.482C1229.55 590.38 1229.68 590.769 1228.73 592.499L1226.62 593.053C1222.52 592.071 1220.54 590.378 1217.12 587.953C1194.61 602.208 1172.65 581.972 1195.25 567.203C1189.01 556.801 1186.93 549.736 1199.9 544.339ZM1207.11 587.741L1211.26 585.414C1211.04 580.702 1202.17 574.623 1198.51 570.265C1189.87 579.075 1190.87 588.418 1204.45 587.887C1205.33 587.851 1206.22 587.802 1207.11 587.741ZM1204.99 562.149C1209.08 558.12 1212.29 555.277 1207.78 550.108C1204.67 548.668 1203.87 548.754 1200.39 548.8C1196.04 553.485 1195.36 560.183 1201.77 563.208L1204.99 562.149Z"/><path fill="#FEFDFE" d="M825.102 545.206C834.221 545.174 851.347 542.851 853.721 554.796C855.145 561.963 851.834 565.639 846.35 569.281C849.831 574.47 856.586 585.613 854.458 592.054L851.792 592.272C848.943 589.921 848.115 586.557 846.828 583.059C845.07 577.569 838.198 566.505 832.062 572.337C830.064 578.236 833.316 588.847 830.055 591.953C826.551 591.979 827.466 592.454 825.012 590.706C824.474 576.916 825.044 559.286 825.102 545.206ZM831.461 566.4C836.36 566.364 840.612 566.614 845.012 564.134C852.72 551.606 841.215 550.27 831.697 550.534L831.461 566.4Z"/><path fill="#FEFDFE" d="M1516.55 546.823C1535.56 546.377 1557.37 547.555 1537.31 571.029L1537.49 573.016C1541.96 576.933 1547.72 588.15 1545.28 593.632L1545.12 593.317L1542.18 594.017C1540.74 592.946 1540.23 591.208 1539.55 589.529C1537.67 584.095 1533.18 571.868 1526.22 571.627C1519.89 575.909 1524.15 588.083 1520.53 593.446C1517.69 593.665 1518.41 594.037 1516.45 592.646C1515.68 578.828 1516.08 560.629 1516.55 546.823ZM1536.73 565.138C1541.47 552.487 1532.85 551.841 1522.91 552.055C1522.42 556.109 1521.3 562.572 1523.31 566.002C1527.45 569.311 1532.44 567.686 1536.73 565.138Z"/><path fill="#FEFDFE" d="M1794.42 547.22C1795.39 547.185 1798.89 547.119 1799.45 547.486C1806.89 552.354 1818.67 577.954 1822.51 585.336C1822.39 574.939 1822.27 564.537 1822.23 554.139C1822.22 550.989 1823.53 548.187 1826.26 546.558C1831.63 548.336 1828.39 586.686 1828.3 592.733C1828.28 594.42 1826.35 594.948 1824.98 595.667C1816.54 591.211 1804.06 564.482 1799 554.965C1799.63 564.239 1799.24 581.621 1799.02 591.432C1798.98 593.175 1796.95 594.136 1795.6 594.827L1794.4 594.388C1792.48 591.744 1792.45 550.341 1794.42 547.22Z"/><path fill="#FEFDFE" d="M1376 546.32C1381.14 546.005 1382.94 546.112 1385.99 550.703C1393.1 561.4 1398.87 573.349 1404.85 584.749C1404.21 578.594 1401.98 547.204 1407.74 546.14C1409.05 547.106 1410.06 547.388 1410.05 549.191C1410.03 557.57 1412.31 588.848 1408.14 594.364C1406.76 593.941 1403.73 592.904 1402.87 591.856C1394.38 581.493 1387.58 565.798 1380.82 554.088C1381.33 565.11 1380.58 576.846 1381.34 587.957C1381.52 590.507 1380.84 591.465 1379.31 592.978C1376.73 593.109 1377.19 593.486 1375.42 592.249C1374.56 586.153 1374.24 550.218 1376 546.32Z"/><path fill="#FEFDFE" d="M1054.25 545.753C1056.76 545.636 1058.11 545.764 1060.62 546.024C1067.07 549.916 1079.11 574.949 1083.45 583.125C1083.45 577.07 1082.47 549.244 1084.84 546.234L1087.58 546.014L1088.67 547.004C1090.05 555.17 1089.73 582.361 1088.37 591.556C1088.22 592.574 1086.39 593.125 1085.17 593.725C1078.08 589.732 1064.12 561.207 1059.46 552.58C1060.03 563.367 1060.43 580.666 1059.89 591.57L1058.47 592.558C1055.52 592.401 1056.21 592.883 1054.42 591.173C1053.16 580.542 1053.89 557.106 1054.25 545.753Z"/><path fill="#FEFDFE" d="M1125.39 545.338C1131.44 545.181 1136.97 545.108 1142.4 548.103C1144.46 550.925 1144 549.685 1144.04 553.267C1139.53 555.461 1117.63 541.912 1114.81 562.472C1113.09 575.053 1113.15 584.734 1128.48 587.46C1132.35 588.146 1134.59 587.952 1137.79 585.648C1138.89 583.061 1138.49 575.427 1138.46 572.205C1131.26 572.383 1128.59 574.176 1125.96 567.592C1129.56 566.895 1140.16 566.781 1144.47 566.647C1144.58 574.189 1144.44 582.067 1144.42 589.64C1143.68 589.939 1142.95 590.229 1142.21 590.511C1105.88 604.386 1092.36 556.918 1125.39 545.338Z"/><path fill="#FEFDFE" d="M1563.94 546.644C1566.08 546.641 1566.52 546.728 1568.58 547.241C1573.75 556.057 1564.41 582.015 1574.93 586.72C1604.66 600.012 1585.49 549.277 1597.13 546.817L1598.43 547.834L1598.75 551.342C1598.68 561.084 1601.22 582.636 1593.99 589.401C1585.21 597.619 1566.26 594.97 1564.22 580.903C1562.55 569.435 1563.47 558.291 1563.94 546.644Z"/><path fill="#FEFDFE" d="M1438.18 546.178C1445.1 545.782 1447 546.047 1453.15 549.064L1453.52 551.554C1448.47 551.662 1439.76 551.382 1435.74 554.096C1433.2 561.986 1447.81 567.73 1452.71 573.459C1461.75 584.045 1454.38 590.582 1443.82 593.719C1438.43 593.611 1432.26 593.603 1428.21 589.84C1427.27 587.008 1427.14 587.884 1427.83 585.249C1432.39 584.452 1443.66 593.288 1450.57 583.822C1449.5 573.308 1409.68 560.427 1438.18 546.178Z"/><path fill="#FEFDFE" d="M1282.9 546.193C1288.19 545.476 1300.81 546.368 1304.02 551.169C1303.45 553.492 1303.76 552.736 1301.71 554.465C1290.31 549.797 1273.49 550.359 1274.87 566.513C1276.16 581.532 1277.97 588.593 1294.15 587.681C1296.58 586.3 1298.46 585.015 1301.26 584.676L1302.42 586.006C1301.64 588.255 1299.71 590.437 1297.5 591.329C1267.9 603.242 1256.76 560.289 1282.9 546.193Z"/><path fill="#FEFDFE" d="M1629.28 547.153C1634.75 546.169 1642.26 546.112 1647.08 549.212C1649.14 552.31 1648.64 550.955 1648.61 555.074C1642.88 555.555 1634.74 546.781 1627.41 555.155C1620.63 562.899 1620.48 577.877 1627.43 585.5C1630.44 588.8 1637.02 588.429 1641.07 588.149C1644.56 586.407 1645.76 584.964 1648.77 585.884L1649.29 587.687C1645.58 595.468 1633.19 593.94 1626.57 592.584C1610.39 580.447 1611.24 557.378 1629.28 547.153Z"/><path fill="#FEFDFE" d="M987.073 545.459C991.593 545.378 1006.85 544.458 1008.8 548.994C1005.62 551.715 996.405 551.094 992.171 551.019L992.089 566.466C996.344 566.344 1006.11 565.546 1008.84 569.059L1008.48 570.999C1007.33 571.786 1005.14 571.573 1003.61 571.591L992.116 571.834C992.062 576.503 993.452 589.914 990.323 592.334C987.37 592.534 988.101 592.926 986.009 591.484C985.304 585.39 984.696 549.451 987.073 545.459Z"/><path fill="#FEFDFE" d="M1660.96 547.29C1669.11 547.146 1686.7 546.351 1694.13 547.631C1694.94 550.154 1695.06 549.329 1694.31 551.606C1691.2 553.191 1684.43 552.576 1680.62 552.49L1680.5 580.225C1680.55 584.463 1680.51 588.702 1680.37 592.938C1678.03 594.546 1678.8 594.091 1675.52 593.978C1673.23 590.539 1674.12 558.547 1674.15 552.461C1669.57 552.384 1663.93 554.196 1660.7 550.682L1660.96 547.29Z"/><path fill="#FEFDFE" d="M1466.92 546.716C1472.52 546.628 1497.5 545.725 1500.87 547.643C1501.25 550.22 1501.5 549.331 1500.17 551.358C1497.02 552.862 1491.32 552.17 1487.61 551.994C1487.01 560.797 1487.2 572.592 1487.08 581.622C1487.12 585.205 1487.56 590.008 1486.19 593.162C1484.01 593.633 1483.73 593.669 1481.67 592.79C1480.23 584.873 1481.06 561.473 1481.19 552.167C1473.59 551.616 1468.46 555.471 1466.92 546.716Z"/><path fill="#FEFDFE" d="M1027.86 545.3C1030.25 545.486 1030.77 545.651 1033.04 546.425C1034.81 549.8 1033.92 586.58 1034 592.831C1031.38 592.672 1030.49 592.543 1027.94 591.919C1026.86 584.367 1027.6 554.097 1027.86 545.3Z"/><path fill="#FEFDFE" d="M1710.89 546.659C1713.78 547.138 1714.13 546.685 1715.81 548.378C1716.28 554.345 1716.61 590.025 1715.32 594.913C1712.2 594.236 1712.12 594.722 1710.11 592.835C1709.29 585.611 1709.41 553.161 1710.89 546.659Z"/><path fill="#AAA9A6" fill-opacity="0.95294118" d="M1209.27 83.3808C1204.88 81.332 1188.14 71.0101 1184.48 68.3033L1203.37 75.8659L1202.3 76.835C1207.13 80.1648 1212.13 81.6114 1216.04 84.2386L1209.27 83.3808Z"/></svg>